<svg width="85" height="93" viewBox="0 0 85 93" fill="none" xmlns="http://www.w3.org/2000/svg">
<g clip-path="url(#clip0_8_49)">
<path fill-rule="evenodd" clip-rule="evenodd" d="M40.0665 0.47296C44.2171 0.145782 48.1882 0.823872 51.9781 2.50723C51.2886 5.45861 49.7786 7.86075 47.4483 9.71193C41.7878 12.626 37.3973 11.2987 34.2785 5.72816C33.8641 4.72967 33.5 3.71253 33.188 2.67675C33.2417 2.4818 33.3524 2.3411 33.5235 2.25295C35.6592 1.4172 37.8402 0.823872 40.0665 0.47296Z" fill="#142227"/>
<path fill-rule="evenodd" clip-rule="evenodd" d="M54.8302 3.8634C55.8301 4.67542 56.8082 5.52303 57.7661 6.40624C58.5496 7.42337 59.3314 8.44051 60.1149 9.45764C61.8731 12.9193 63.6615 16.3674 65.4835 19.7985C66.2569 20.9767 67.0957 22.1074 68 23.189C69.0066 24.0925 70.0132 24.9978 71.0199 25.9013C72.8687 28.9646 72.4492 31.7041 69.7616 34.1232C67.2249 36.0557 64.4282 37.4967 61.3732 38.446C61.6785 29.9665 58.0429 23.8925 50.4682 20.2223C43.6232 17.4913 37.1356 18.1694 31.007 22.2566C25.7643 26.4218 23.3601 31.8753 23.793 38.6155C20.9778 37.6458 18.3489 36.3168 15.9078 34.6317C11.717 30.7717 11.8848 27.1541 16.4111 23.7823C17.812 22.2227 19.0703 20.5546 20.1859 18.7814C21.4107 16.3063 22.6421 13.8195 23.8769 11.3224C25.4287 8.41339 27.5258 5.98413 30.1682 4.03293C31.0607 5.72137 32.0388 7.36065 33.1041 8.94908C37.0719 13.1787 41.7979 14.3382 47.2806 12.4243C49.4398 11.4868 51.2013 10.0459 52.5653 8.10146C53.4075 6.7385 54.1625 5.32469 54.8302 3.8634Z" fill="#142227"/>
<path fill-rule="evenodd" clip-rule="evenodd" d="M14.6294 58.5056L14.6244 58.9582H14.5657C14.5657 58.9582 14.5674 58.9497 14.569 58.9328C14.5707 58.9192 14.5724 58.9057 14.5741 58.8921C14.5757 58.8836 14.5757 58.8751 14.5774 58.8667C14.5825 58.8277 14.5892 58.7819 14.5959 58.7327C14.6009 58.6988 14.6059 58.6649 14.611 58.6293C14.616 58.5887 14.6227 58.5463 14.6294 58.5056Z" fill="#152227"/>
<path fill-rule="evenodd" clip-rule="evenodd" d="M45.6029 40.3955C44.2976 40.5532 43.2625 40.0734 42.4991 38.9546C41.7358 40.1599 40.6738 40.6125 39.3115 40.3107C39.1991 39.9717 39.1991 39.6326 39.3115 39.2936C40.3819 37.8662 41.1369 36.2829 41.5764 34.547C42.2928 34.4961 42.9907 34.5538 43.6735 34.7165C44.1248 36.4185 44.8513 38.0018 45.8545 39.4631C45.9938 39.8361 45.9099 40.1463 45.6029 40.3955Z" fill="#152227"/>
<path fill-rule="evenodd" clip-rule="evenodd" d="M51.8942 33.3603C50.958 34.7301 49.6998 35.1539 48.1194 34.6317C46.4249 33.5214 46.0625 32.0804 47.0289 30.3089C47.3829 29.8648 47.8023 29.5257 48.2872 29.2918C51.255 29.0968 52.4579 30.453 51.8942 33.3603Z" fill="#152227"/>
<path fill-rule="evenodd" clip-rule="evenodd" d="M45.6029 40.3955C44.2976 40.5532 43.2625 40.0734 42.4991 38.9546C41.7358 40.1599 40.6738 40.6125 39.3115 40.3107C39.1991 39.9717 39.1991 39.6326 39.3115 39.2936C40.3819 37.8662 41.1369 36.2829 41.5764 34.547C42.2928 34.4961 42.9907 34.5538 43.6735 34.7165C44.1248 36.4185 44.8513 38.0018 45.8545 39.4631C45.9938 39.8361 45.9099 40.1463 45.6029 40.3955Z" fill="#FBFCFA"/>
<path fill-rule="evenodd" clip-rule="evenodd" d="M51.8942 33.3603C50.958 34.7301 49.6998 35.1539 48.1194 34.6317C46.4249 33.5214 46.0625 32.0804 47.0289 30.3089C47.3829 29.8648 47.8023 29.5257 48.2872 29.2918C51.255 29.0968 52.4579 30.453 51.8942 33.3603Z" fill="#FBFCFA"/>
<path fill-rule="evenodd" clip-rule="evenodd" d="M45.6029 40.3955C44.2976 40.5532 43.2625 40.0734 42.4991 38.9546C41.7358 40.1599 40.6738 40.6125 39.3115 40.3107C39.1991 39.9717 39.1991 39.6326 39.3115 39.2936C40.3819 37.8662 41.1369 36.2829 41.5764 34.547C42.2928 34.4961 42.9907 34.5538 43.6735 34.7165C44.1248 36.4185 44.8513 38.0018 45.8545 39.4631C45.9938 39.8361 45.9099 40.1463 45.6029 40.3955Z" fill="#172126"/>
<path fill-rule="evenodd" clip-rule="evenodd" d="M51.8942 33.3603C50.958 34.7301 49.6998 35.1539 48.1194 34.6317C46.4249 33.5214 46.0625 32.0804 47.0289 30.3089C47.3829 29.8648 47.8023 29.5257 48.2872 29.2918C51.255 29.0968 52.4579 30.453 51.8942 33.3603Z" fill="#172429"/>
<path fill-rule="evenodd" clip-rule="evenodd" d="M47.9517 65.9934C47.8393 66.107 47.7285 66.107 47.6161 65.9934L43.5897 62.942C43.3682 62.803 43.2558 62.6063 43.2542 62.3487C44.3363 62.8674 45.3429 63.5184 46.274 64.2982C46.9451 64.7508 47.5037 65.3153 47.9517 65.9934Z" fill="#FBFCFA"/>
<path fill-rule="evenodd" clip-rule="evenodd" d="M84.4413 44.3793C83.0187 30.6954 76.8666 19.79 65.9868 11.6614C65.5674 11.9411 65.3157 12.3378 65.2318 12.8481C65.9902 14.8908 66.9699 16.8115 68.1678 18.6119C69.6173 20.2461 71.1272 21.8277 72.6975 23.3585C73.3535 24.1756 73.9692 25.0232 74.543 25.9013C79.571 34.2995 81.6111 43.396 80.6665 53.1944C80.326 56.1153 79.7656 58.9972 78.9889 61.8401C77.1552 67.297 74.3316 72.1572 70.5165 76.419C70.4444 72.2318 70.4125 68.0412 70.4259 63.8523V63.8184C70.441 62.5012 70.4864 57.9597 70.4226 57.6393V57.9563C70.4075 57.7258 70.384 57.4935 70.3488 57.263C68.5721 50.0701 64.0709 45.9457 56.8434 44.8878C60.4588 37.4356 59.2844 30.8531 53.3203 25.1385C48.5909 21.7328 43.39 20.7156 37.7178 22.0871C29.2975 25.1164 25.578 31.1345 26.5611 40.1412C27.0108 41.7822 27.598 43.3655 28.3227 44.8878C27.5292 44.8675 26.7457 44.9523 25.974 45.1421C19.4243 47.2561 15.6428 51.7094 14.6294 58.5056L14.6244 58.9582H14.5657V61.6706H14.5925L14.5724 63.4082C14.5858 67.6886 14.5556 71.9707 14.4818 76.2495C12.5458 74.1813 10.8681 71.9216 9.44874 69.4686C3.11715 57.0256 2.55848 44.3115 7.77106 31.326C9.79267 26.5048 12.7571 22.3786 16.6628 18.9509C17.9697 17.0472 19.0602 15.0129 19.9343 12.8481C19.6491 11.7954 19.0887 11.597 18.2566 12.2548C4.99113 23.0127 -0.79689 36.9983 0.892541 54.2116C1.97633 64.2524 5.97425 72.8404 12.888 79.979C17.703 84.9189 23.4071 88.45 30.0004 90.5741C40.4574 93.5848 50.6343 92.8508 60.5343 88.3703C70.7128 83.3118 77.8162 75.429 81.8409 64.722C82.2167 63.8489 82.4969 62.9454 82.6798 62.0096C83.017 60.9094 83.324 59.7787 83.6025 58.6191C84.4514 53.9098 84.7299 49.1632 84.4413 44.3793ZM30.5876 29.4613C31.6882 28.1797 32.8911 27.0202 34.1946 25.9861C34.906 25.5741 35.6341 25.208 36.3756 24.8842C37.6121 24.1756 38.9542 23.7806 40.4021 23.6975C41.0396 23.5314 41.7107 23.4738 42.4153 23.528H43.5897C43.9856 23.5009 44.3765 23.528 44.7641 23.6128C44.6399 23.7891 44.4721 23.8738 44.2607 23.8671C42.568 24.9249 40.8903 26.0268 39.2277 27.1727C38.56 27.1456 37.8889 27.0609 37.2145 26.9185C34.9966 27.4033 33.0119 28.3645 31.2587 29.8003L30.7554 30.8175C30.3645 31.0429 29.9719 31.2701 29.581 31.4956C29.8159 30.7954 30.1514 30.1173 30.5876 29.4613ZM47.7839 74.3C47.4651 74.5204 47.1296 74.6339 46.7773 74.639C48.4701 71.8741 48.0238 69.5008 45.4351 67.5191C44.7355 67.0393 44.0376 66.5579 43.338 66.0781C43.1635 70.4976 43.2474 74.9052 43.5897 79.3009C43.3313 83.3203 41.2057 85.2121 37.2145 84.9799C35.0402 84.3933 33.698 83.0083 33.188 80.8266C33.1595 80.0892 33.188 79.3551 33.2719 78.6228C34.6191 75.4697 36.9393 74.339 40.2343 75.2323C40.3735 68.7905 40.4574 62.3486 40.486 55.9068C42.8515 57.9885 45.2841 59.9669 47.7839 61.8401C49.1797 62.9081 50.2149 64.2642 50.8876 65.9086C51.7936 69.4686 50.7584 72.2657 47.7839 74.3ZM31.3426 44.6335C28.472 41.6025 27.6332 38.0713 28.826 34.0384C29.4132 33.601 30.0273 33.2043 30.6715 32.8517C31.9767 35.8269 34.1577 36.7592 37.2145 35.6489C39.8585 34.0198 40.8383 31.6736 40.1504 28.6137C42.3834 27.0761 44.6483 25.608 46.945 24.2061C52.3019 25.9742 55.5734 29.6478 56.7595 35.2251C57.3182 38.9223 56.2831 42.0585 53.6558 44.6335C46.2186 44.7471 38.7797 44.7471 31.3426 44.6335Z" fill="#142227"/>
<path fill-rule="evenodd" clip-rule="evenodd" d="M14.5657 61.6706C14.569 62.2503 14.5707 62.8284 14.5724 63.4082L14.5657 63.954V61.6706Z" fill="#142227"/>
<path fill-rule="evenodd" clip-rule="evenodd" d="M14.5925 61.6706L14.5724 63.4082C14.5724 62.8284 14.569 62.2503 14.5657 61.6706H14.5925Z" fill="#142227"/>
<path fill-rule="evenodd" clip-rule="evenodd" d="M47.9517 65.9934C47.8393 66.107 47.7285 66.107 47.6161 65.9934L43.5897 62.942C43.3682 62.803 43.2558 62.6063 43.2542 62.3487C44.3363 62.8674 45.3429 63.5184 46.274 64.2982C46.9451 64.7508 47.5037 65.3153 47.9517 65.9934Z" fill="#242625"/>
<path fill-rule="evenodd" clip-rule="evenodd" d="M14.5925 61.6706L14.5724 63.4082C14.5724 62.8284 14.569 62.2503 14.5657 61.6706H14.5925Z" fill="#FEFEFC"/>
<path fill-rule="evenodd" clip-rule="evenodd" d="M14.6294 58.5056L14.6244 58.9582H14.5657C14.5657 58.9582 14.5674 58.9497 14.569 58.9328C14.5707 58.9192 14.5724 58.9057 14.5741 58.8921C14.5757 58.8836 14.5757 58.8751 14.5774 58.8667C14.5825 58.8277 14.5892 58.7819 14.5959 58.7327C14.6009 58.6988 14.6059 58.6649 14.611 58.6293C14.616 58.5887 14.6227 58.5463 14.6294 58.5056Z" fill="#FEFEFC"/>
</g>
<defs>
<clipPath id="clip0_8_49">
<rect width="85" height="93" fill="white"/>
</clipPath>
</defs>
</svg>
